<?xml version="1.0" encoding="UTF-8" standalone="no"?>
<!-- Generator: Adobe Illustrator 19.0.0, SVG Export Plug-In . SVG Version: 6.00 Build 0)  -->

<svg
   xmlns:dc="http://purl.org/dc/elements/1.1/"
   xmlns:cc="http://creativecommons.org/ns#"
   xmlns:rdf="http://www.w3.org/1999/02/22-rdf-syntax-ns#"
   xmlns:svg="http://www.w3.org/2000/svg"
   xmlns="http://www.w3.org/2000/svg"
   xmlns:sodipodi="http://sodipodi.sourceforge.net/DTD/sodipodi-0.dtd"
   xmlns:inkscape="http://www.inkscape.org/namespaces/inkscape"
   version="1.1"
   id="Capa_1"
   x="0px"
   y="0px"
   viewBox="0 0 1980 696.59598"
   style="enable-background:new"
   xml:space="preserve"
   sodipodi:docname="LogoNew.svg"
   inkscape:version="0.92.3 (2405546, 2018-03-11)"
   width="1980"
   height="696.59595"
   inkscape:export-filename="/home/desarrollador0/Desarrollo/ergy-pos-website/src/images/logo.png"
   inkscape:export-xdpi="96"
   inkscape:export-ydpi="96"><metadata
   id="metadata43"><rdf:RDF><cc:Work
       rdf:about=""><dc:format>image/svg+xml</dc:format><dc:type
         rdf:resource="http://purl.org/dc/dcmitype/StillImage" /><dc:title></dc:title></cc:Work></rdf:RDF></metadata><defs
   id="defs41"><marker
   inkscape:stockid="Arrow1Lstart"
   orient="auto"
   refY="0"
   refX="0"
   id="marker5797"
   style="overflow:visible"
   inkscape:isstock="true"><path
     id="path5795"
     d="M 0,0 5,-5 -12.5,0 5,5 Z"
     style="fill:#000000;fill-opacity:1;fill-rule:evenodd;stroke:none;stroke-width:1.00000003pt;stroke-opacity:1"
     transform="matrix(0.8,0,0,0.8,10,0)"
     inkscape:connector-curvature="0" /></marker><marker
   inkscape:stockid="Arrow1Lstart"
   orient="auto"
   refY="0"
   refX="0"
   id="marker5769"
   style="overflow:visible"
   inkscape:isstock="true"><path
     id="path5767"
     d="M 0,0 5,-5 -12.5,0 5,5 Z"
     style="fill:#000000;fill-opacity:1;fill-rule:evenodd;stroke:none;stroke-width:1.00000003pt;stroke-opacity:1"
     transform="matrix(0.8,0,0,0.8,10,0)"
     inkscape:connector-curvature="0" /></marker><marker
   inkscape:stockid="Arrow1Lstart"
   orient="auto"
   refY="0"
   refX="0"
   id="marker5747"
   style="overflow:visible"
   inkscape:isstock="true"><path
     id="path5745"
     d="M 0,0 5,-5 -12.5,0 5,5 Z"
     style="fill:#000000;fill-opacity:1;fill-rule:evenodd;stroke:none;stroke-width:1.00000003pt;stroke-opacity:1"
     transform="matrix(0.8,0,0,0.8,10,0)"
     inkscape:connector-curvature="0" /></marker><marker
   inkscape:stockid="Arrow1Lstart"
   orient="auto"
   refY="0"
   refX="0"
   id="Arrow1Lstart"
   style="overflow:visible"
   inkscape:isstock="true"><path
     id="path5469"
     d="M 0,0 5,-5 -12.5,0 5,5 Z"
     style="fill:#000000;fill-opacity:1;fill-rule:evenodd;stroke:none;stroke-width:1.00000003pt;stroke-opacity:1"
     transform="matrix(0.8,0,0,0.8,10,0)"
     inkscape:connector-curvature="0" /></marker>
	
	


</defs><sodipodi:namedview
   pagecolor="#ffffff"
   bordercolor="#666666"
   borderopacity="1"
   objecttolerance="10"
   gridtolerance="10"
   guidetolerance="10"
   inkscape:pageopacity="0"
   inkscape:pageshadow="2"
   inkscape:window-width="1440"
   inkscape:window-height="792"
   id="namedview39"
   showgrid="false"
   inkscape:snap-bbox="true"
   inkscape:object-paths="true"
   inkscape:snap-midpoints="true"
   inkscape:zoom="0.25000001"
   inkscape:cx="568.01161"
   inkscape:cy="575.68797"
   inkscape:window-x="0"
   inkscape:window-y="27"
   inkscape:window-maximized="1"
   inkscape:current-layer="g955"
   fit-margin-top="0"
   fit-margin-left="0"
   fit-margin-right="0"
   fit-margin-bottom="0" />

<g
   id="g8"
   transform="translate(-4.1874746,661.40556)">
</g>
<g
   id="g10"
   transform="translate(-4.1874746,661.40556)">
</g>
<g
   id="g12"
   transform="translate(-4.1874746,661.40556)">
</g>
<g
   id="g14"
   transform="translate(-4.1874746,661.40556)">
</g>
<g
   id="g16"
   transform="translate(-4.1874746,661.40556)">
</g>
<g
   id="g18"
   transform="translate(-4.1874746,661.40556)">
</g>
<g
   id="g20"
   transform="translate(-4.1874746,661.40556)">
</g>
<g
   id="g22"
   transform="translate(-4.1874746,661.40556)">
</g>
<g
   id="g24"
   transform="translate(-4.1874746,661.40556)">
</g>
<g
   id="g26"
   transform="translate(-4.1874746,661.40556)">
</g>
<g
   id="g28"
   transform="translate(-4.1874746,661.40556)">
</g>
<g
   id="g30"
   transform="translate(-4.1874746,661.40556)">
</g>
<g
   id="g32"
   transform="translate(-4.1874746,661.40556)">
</g>
<g
   id="g34"
   transform="translate(-4.1874746,661.40556)">
</g>
<g
   id="g36"
   transform="translate(-4.1874746,661.40556)">
</g>
<g
   inkscape:groupmode="layer"
   id="layer2"
   inkscape:label="Layer 2"
   transform="translate(113.08076,603.31945)"><g
     id="g955"><g
       id="g1157"
       transform="matrix(0.99534651,0,0,0.99534651,-0.50563965,0.43406102)"
       inkscape:export-xdpi="96"
       inkscape:export-ydpi="96"><g
         transform="matrix(2.0790978,0,0,2.0790978,1575.8368,-96.173667)"
         inkscape:export-ydpi="23.559999"
         inkscape:export-xdpi="23.559999"
         id="g935"><g
           id="g940"
           style="fill:#3f51b5;fill-opacity:1"><path
             style="fill:#3f51b5;fill-opacity:1;stroke-width:10.15188217;enable-background:new"
             d="m 131.83831,91.086196 h -239.83822 c -1.39081,0 -2.7207,-0.568505 -3.67498,-1.573542 -0.95428,-1.005036 -1.46187,-2.355236 -1.40096,-3.746044 l 11.42087,-239.83821 c 0.13197,-2.71055 2.355236,-4.8323 5.07594,-4.8323 h 216.99648 c 2.71055,0 4.94396,2.12175 5.07594,4.8323 l 11.42087,239.83821 c 0.0609,1.390808 -0.43653,2.741008 -1.40096,3.746044 -0.96443,1.005037 -2.29433,1.573542 -3.67498,1.573542 z M -102.68032,80.934314 H 126.50857 L 115.57499,-148.75202 H -91.746744 Z"
             id="path2"
             inkscape:connector-curvature="0" /><path
             inkscape:connector-curvature="0"
             id="path4"
             d="m 66.785045,-128.44825 c -2.801919,0 -5.075941,-2.27402 -5.075941,-5.07594 v -50.45486 c 0,-27.45069 -22.33414,-49.79498 -49.794981,-49.79498 -27.460841,0 -49.794981,22.34429 -49.794981,49.79498 v 50.45486 c 0,2.80192 -2.274022,5.07594 -5.075941,5.07594 -2.80192,0 -5.075941,-2.27402 -5.075941,-5.07594 v -50.45486 c 0,-33.05452 26.892335,-59.94686 59.946863,-59.94686 33.054528,0 59.946863,26.89234 59.946863,59.94686 v 50.45486 c 0,2.80192 -2.263869,5.07594 -5.075941,5.07594 z"
             style="fill:#3f51b5;fill-opacity:1;stroke-width:10.15188217" /></g></g><g
         transform="matrix(1.1307779,0,0,1.1307779,-212.8211,23.129475)"
         id="g1137"><path
           inkscape:connector-curvature="0"
           id="path2-2"
           d="m 1593.681,-97.264268 24.589,23.119285 c 2.0854,-1.187045 4.3221,-2.083026 6.7102,-2.675978 l 0.017,-50.398369 c -1.4906,0.60492 -2.831,1.48971 -4.0312,2.68876 l -27.2901,27.266302"
           style="fill:none;fill-opacity:1;fill-rule:evenodd;stroke:#3f51b5;stroke-width:10;stroke-linecap:round;stroke-linejoin:round;stroke-miterlimit:4;stroke-dasharray:none;stroke-opacity:1"
           inkscape:export-xdpi="23.559999"
           inkscape:export-ydpi="23.559999" /><path
           inkscape:connector-curvature="0"
           id="path4-6"
           d="m 1649.0761,-70.062416 c 4.9594,5.266812 7.5073,11.099163 7.5043,17.854675 0,6.755492 -2.4982,12.76448 -7.4623,18.038573 -5.2784,4.959476 -11.2896,7.449397 -18.0451,7.446422 -6.7554,-0.0023 -12.7761,-2.498134 -18.0386,-7.462252 -7.7533,-8.855424 -9.3796,-18.50022 -4.9024,-28.934345 l -25.0434,-23.410662 -24.3072,24.285854 c -5.5703,6.659879 -5.5732,13.322204 -0.01,19.97533 l 62.2863,62.352648 c 6.6598,5.570389 13.3222,5.573323 19.9753,0.0089 l 62.3527,-62.297951 c 5.5704,-6.648227 5.5732,-13.310576 0.01,-19.97533 l -62.2979,-62.341206 c -0.2915,-0.30288 -0.6408,-0.59437 -1.0359,-0.89725 l -0.017,49.350106 c 3.3772,1.294265 7.6137,4.591766 10.303,7.178694"
           style="fill:none;fill-opacity:1;fill-rule:evenodd;stroke:#3f51b5;stroke-width:10;stroke-miterlimit:4;stroke-dasharray:none;stroke-opacity:1"
           inkscape:export-xdpi="23.559999"
           inkscape:export-ydpi="23.559999"
           sodipodi:nodetypes="ccccccccccccccccc" /><path
           inkscape:connector-curvature="0"
           id="path6"
           d="m 1625.0251,-179.24833 0.017,-50.38674 c -1.9916,-0.50171 -3.8781,-1.24805 -5.6597,-2.23878 l -24.9124,23.24895 26.5211,26.69588 c 1.2921,1.09544 2.6431,1.9813 4.0289,2.68069"
           style="fill:none;fill-opacity:1;fill-rule:evenodd;stroke:#3f51b5;stroke-width:10;stroke-linecap:round;stroke-miterlimit:4;stroke-dasharray:none;stroke-opacity:1"
           inkscape:export-xdpi="23.559999"
           inkscape:export-ydpi="23.559999" /><path
           inkscape:connector-curvature="0"
           id="path8"
           d="m 1613.2443,-272.223 c 5.2669,-4.97112 11.1843,-7.50788 17.9397,-7.50493 6.7556,0.003 12.7646,2.4865 18.0386,7.46228 4.9595,5.26681 7.4494,11.28962 7.4464,18.04511 0,6.75551 -2.4981,12.76446 -7.4622,18.03855 -2.6916,2.57289 -5.7209,4.51672 -9.0991,5.80809 l -0.017,49.35009 c 0.3968,-0.30267 0.7461,-0.60534 1.0376,-0.8964 l 62.3528,-62.29799 c 5.5703,-6.64824 5.5733,-13.35715 0.01,-20.12674 l -62.2983,-62.18962 c -6.6482,-5.57039 -13.3106,-5.5733 -19.9752,-0.008 l -62.341,62.13489 c -5.5705,6.76469 -5.5735,13.4736 -0.01,20.12674 l 25.0309,25.06418 24.7609,-23.24903 c -5.0618,-10.74115 -2.8372,-21.34907 5.2153,-30.48876"
           style="fill:none;fill-opacity:1;fill-rule:evenodd;stroke:#3f51b5;stroke-width:10;stroke-miterlimit:4;stroke-dasharray:none;stroke-opacity:1"
           inkscape:export-xdpi="23.559999"
           inkscape:export-ydpi="23.559999"
           sodipodi:nodetypes="ccccccccccccccccc" /><path
           inkscape:connector-curvature="0"
           id="path10"
           d="m 1547.9254,-140.06531 24.4494,22.96778 26.1015,-26.07876 c 5.5589,-6.75307 5.5618,-13.46198 0.01,-20.12675 l -25.3337,-25.35588 -24.7609,23.249 c 4.364,8.5395 4.2089,16.99546 -0.4644,25.34461"
           style="fill:none;fill-opacity:1;fill-rule:evenodd;stroke:#3f51b5;stroke-width:10;stroke-linecap:round;stroke-linejoin:round;stroke-miterlimit:4;stroke-dasharray:none;stroke-opacity:1"
           inkscape:export-xdpi="23.559999"
           inkscape:export-ydpi="23.559999" /><path
           inkscape:connector-curvature="0"
           id="path12"
           d="m 1453.8623,-143.23974 62.286,62.341017 c 6.66,5.57039 13.3688,5.573344 20.1268,0.0089 l 25.5075,-25.485107 -25.1831,-23.56213 c -10.3446,4.16523 -19.8366,2.42561 -28.4756,-5.23055 -4.9712,-5.26683 -7.4494,-11.28962 -7.4464,-18.04511 0,-6.75552 2.4866,-12.76448 7.4623,-18.0386 9.0417,-7.93958 18.8846,-9.48436 29.5165,-4.59941 l 24.9125,-23.40039 -25.8188,-25.6909 c -6.6596,-5.57041 -13.3106,-5.57333 -19.9753,-0.009 l -62.3409,62.29794 c -5.5703,6.64821 -5.5732,13.31053 -0.01,19.97531"
           style="fill:none;fill-opacity:1;fill-rule:evenodd;stroke:#3f51b5;stroke-width:10;stroke-miterlimit:4;stroke-dasharray:none;stroke-opacity:1"
           inkscape:export-xdpi="23.559999"
           inkscape:export-ydpi="23.559999"
           sodipodi:nodetypes="cccccccccccccc" /><path
           inkscape:connector-curvature="0"
           id="path14"
           d="m 1537.979,-221.03088 30.5493,30.72763 30.7277,-30.70076 -30.7009,-30.57629 -30.5761,30.54942"
           style="fill:none;fill-opacity:1;fill-rule:evenodd;stroke:#3f51b5;stroke-width:10;stroke-miterlimit:4;stroke-dasharray:none;stroke-opacity:1"
           inkscape:export-xdpi="23.559999"
           inkscape:export-ydpi="23.559999" /><path
           inkscape:connector-curvature="0"
           id="path16"
           d="m 1704.1266,-318.38454 -34.4509,-34.07627 -30.5761,30.54941 30.5492,30.716 29.2278,-28.93914"
           style="fill:none;fill-opacity:1;fill-rule:evenodd;stroke:#3f51b5;stroke-width:10;stroke-linejoin:miter;stroke-miterlimit:4;stroke-dasharray:none;stroke-opacity:1"
           inkscape:export-xdpi="23.559999"
           inkscape:export-ydpi="23.559999"
           sodipodi:nodetypes="ccccc" /><path
           inkscape:connector-curvature="0"
           id="path18"
           d="m 1639.0109,-119.8986 30.5493,30.715982 30.7278,-30.689122 -30.7008,-30.5763 -30.5763,30.54944"
           style="fill:none;fill-opacity:1;fill-rule:evenodd;stroke:#3f51b5;stroke-width:10;stroke-miterlimit:4;stroke-dasharray:none;stroke-opacity:1"
           inkscape:export-xdpi="23.559999"
           inkscape:export-ydpi="23.559999" /></g><text
         id="text1054"
         y="-176.8284"
         x="-151.8269"
         style="font-style:normal;font-weight:normal;font-size:363.27713013px;line-height:1.25;font-family:sans-serif;letter-spacing:0px;word-spacing:0px;opacity:1;fill:#3f51b5;fill-opacity:1;stroke:none;stroke-width:9.08192921;stroke-opacity:1"
         xml:space="preserve"><tspan
           style="font-style:normal;font-variant:normal;font-weight:normal;font-stretch:normal;font-size:593.35272217px;font-family:'Arial Black';-inkscape-font-specification:'Arial Black, ';fill:#3f51b5;fill-opacity:1;stroke:none;stroke-width:9.08192921;stroke-opacity:1"
           y="-176.8284"
           x="-151.8269"
           id="tspan1052"
           sodipodi:role="line">Ergy</tspan></text>
<text
         id="text1060"
         y="86.410606"
         x="-137.20624"
         style="font-style:normal;font-weight:normal;font-size:351.53189087px;line-height:1.25;font-family:sans-serif;letter-spacing:0px;word-spacing:0px;fill:#000000;fill-opacity:1;stroke:none;stroke-width:9.41603184"
         xml:space="preserve"><tspan
           style="font-style:normal;font-variant:normal;font-weight:normal;font-stretch:normal;font-size:351.53189087px;font-family:Helvetica;-inkscape-font-specification:Helvetica;fill:#8f8f8f;fill-opacity:1;stroke-width:9.41603184"
           y="86.410606"
           x="-137.20624"
           id="tspan1058"
           sodipodi:role="line">POS</tspan></text>
</g></g></g></svg>